<mxfile host="app.diagrams.net" modified="2022-10-18T16:25:55.722Z" agent="5.0 (Windows NT 10.0; Win64; x64) AppleWebKit/537.36 (KHTML, like Gecko) Chrome/106.0.0.0 Safari/537.36" etag="jHuKaZh5by0LJeDVC9cI" version="20.4.1" type="github">
  <diagram id="7f8LVxKrt_2KC4X9Lav3" name="Страница 1">
    <mxGraphModel dx="2360" dy="2613" grid="1" gridSize="10" guides="1" tooltips="1" connect="1" arrows="1" fold="1" page="1" pageScale="1" pageWidth="827" pageHeight="1169" math="0" shadow="0">
      <root>
        <mxCell id="0" />
        <mxCell id="1" parent="0" />
        <mxCell id="qgj9xZN51WoRZrE9PYhr-9" value="Аудитория" style="swimlane;fontStyle=0;childLayout=stackLayout;horizontal=1;startSize=30;horizontalStack=0;resizeParent=1;resizeParentMax=0;resizeLast=0;collapsible=1;marginBottom=0;align=center;" vertex="1" parent="1">
          <mxGeometry x="100" y="80" width="140" height="150" as="geometry" />
        </mxCell>
        <mxCell id="qgj9xZN51WoRZrE9PYhr-10" value="Номер" style="text;strokeColor=none;fillColor=none;align=center;verticalAlign=middle;spacingLeft=4;spacingRight=4;overflow=hidden;points=[[0,0.5],[1,0.5]];portConstraint=eastwest;rotatable=0;" vertex="1" parent="qgj9xZN51WoRZrE9PYhr-9">
          <mxGeometry y="30" width="140" height="30" as="geometry" />
        </mxCell>
        <mxCell id="qgj9xZN51WoRZrE9PYhr-11" value="Тип" style="text;strokeColor=none;fillColor=none;align=center;verticalAlign=middle;spacingLeft=4;spacingRight=4;overflow=hidden;points=[[0,0.5],[1,0.5]];portConstraint=eastwest;rotatable=0;" vertex="1" parent="qgj9xZN51WoRZrE9PYhr-9">
          <mxGeometry y="60" width="140" height="30" as="geometry" />
        </mxCell>
        <mxCell id="qgj9xZN51WoRZrE9PYhr-12" value="Количество мест" style="text;strokeColor=none;fillColor=none;align=center;verticalAlign=middle;spacingLeft=4;spacingRight=4;overflow=hidden;points=[[0,0.5],[1,0.5]];portConstraint=eastwest;rotatable=0;" vertex="1" parent="qgj9xZN51WoRZrE9PYhr-9">
          <mxGeometry y="90" width="140" height="30" as="geometry" />
        </mxCell>
        <mxCell id="qgj9xZN51WoRZrE9PYhr-13" value="Количество окон" style="text;html=1;strokeColor=none;fillColor=none;align=center;verticalAlign=middle;whiteSpace=wrap;rounded=0;" vertex="1" parent="qgj9xZN51WoRZrE9PYhr-9">
          <mxGeometry y="120" width="140" height="30" as="geometry" />
        </mxCell>
        <mxCell id="qgj9xZN51WoRZrE9PYhr-14" value="Человек" style="swimlane;fontStyle=0;childLayout=stackLayout;horizontal=1;startSize=30;horizontalStack=0;resizeParent=1;resizeParentMax=0;resizeLast=0;collapsible=1;marginBottom=0;" vertex="1" parent="1">
          <mxGeometry x="340" y="30" width="140" height="210" as="geometry" />
        </mxCell>
        <mxCell id="qgj9xZN51WoRZrE9PYhr-15" value="Имя" style="text;strokeColor=none;fillColor=none;align=center;verticalAlign=middle;spacingLeft=4;spacingRight=4;overflow=hidden;points=[[0,0.5],[1,0.5]];portConstraint=eastwest;rotatable=0;" vertex="1" parent="qgj9xZN51WoRZrE9PYhr-14">
          <mxGeometry y="30" width="140" height="30" as="geometry" />
        </mxCell>
        <mxCell id="qgj9xZN51WoRZrE9PYhr-16" value="Фамилия" style="text;strokeColor=none;fillColor=none;align=center;verticalAlign=middle;spacingLeft=4;spacingRight=4;overflow=hidden;points=[[0,0.5],[1,0.5]];portConstraint=eastwest;rotatable=0;" vertex="1" parent="qgj9xZN51WoRZrE9PYhr-14">
          <mxGeometry y="60" width="140" height="30" as="geometry" />
        </mxCell>
        <mxCell id="qgj9xZN51WoRZrE9PYhr-17" value="Пол" style="text;strokeColor=none;fillColor=none;align=center;verticalAlign=middle;spacingLeft=4;spacingRight=4;overflow=hidden;points=[[0,0.5],[1,0.5]];portConstraint=eastwest;rotatable=0;" vertex="1" parent="qgj9xZN51WoRZrE9PYhr-14">
          <mxGeometry y="90" width="140" height="30" as="geometry" />
        </mxCell>
        <mxCell id="qgj9xZN51WoRZrE9PYhr-27" value="Возраст" style="text;html=1;strokeColor=none;fillColor=none;align=center;verticalAlign=middle;whiteSpace=wrap;rounded=0;" vertex="1" parent="qgj9xZN51WoRZrE9PYhr-14">
          <mxGeometry y="120" width="140" height="30" as="geometry" />
        </mxCell>
        <mxCell id="qgj9xZN51WoRZrE9PYhr-28" value="Рост" style="text;html=1;strokeColor=none;fillColor=none;align=center;verticalAlign=middle;whiteSpace=wrap;rounded=0;" vertex="1" parent="qgj9xZN51WoRZrE9PYhr-14">
          <mxGeometry y="150" width="140" height="30" as="geometry" />
        </mxCell>
        <mxCell id="qgj9xZN51WoRZrE9PYhr-29" value="Вес" style="text;html=1;strokeColor=none;fillColor=none;align=center;verticalAlign=middle;whiteSpace=wrap;rounded=0;" vertex="1" parent="qgj9xZN51WoRZrE9PYhr-14">
          <mxGeometry y="180" width="140" height="30" as="geometry" />
        </mxCell>
        <mxCell id="qgj9xZN51WoRZrE9PYhr-18" value="Студент" style="swimlane;fontStyle=0;childLayout=stackLayout;horizontal=1;startSize=30;horizontalStack=0;resizeParent=1;resizeParentMax=0;resizeLast=0;collapsible=1;marginBottom=0;" vertex="1" parent="1">
          <mxGeometry x="220" y="350" width="160" height="120" as="geometry" />
        </mxCell>
        <mxCell id="qgj9xZN51WoRZrE9PYhr-19" value="Курс" style="text;strokeColor=none;fillColor=none;align=left;verticalAlign=middle;spacingLeft=4;spacingRight=4;overflow=hidden;points=[[0,0.5],[1,0.5]];portConstraint=eastwest;rotatable=0;" vertex="1" parent="qgj9xZN51WoRZrE9PYhr-18">
          <mxGeometry y="30" width="160" height="30" as="geometry" />
        </mxCell>
        <mxCell id="qgj9xZN51WoRZrE9PYhr-20" value="Направление(группа)" style="text;strokeColor=none;fillColor=none;align=left;verticalAlign=middle;spacingLeft=4;spacingRight=4;overflow=hidden;points=[[0,0.5],[1,0.5]];portConstraint=eastwest;rotatable=0;" vertex="1" parent="qgj9xZN51WoRZrE9PYhr-18">
          <mxGeometry y="60" width="160" height="30" as="geometry" />
        </mxCell>
        <mxCell id="qgj9xZN51WoRZrE9PYhr-21" value="Предыдущее образование" style="text;strokeColor=none;fillColor=none;align=left;verticalAlign=middle;spacingLeft=4;spacingRight=4;overflow=hidden;points=[[0,0.5],[1,0.5]];portConstraint=eastwest;rotatable=0;" vertex="1" parent="qgj9xZN51WoRZrE9PYhr-18">
          <mxGeometry y="90" width="160" height="30" as="geometry" />
        </mxCell>
        <mxCell id="qgj9xZN51WoRZrE9PYhr-22" value="Преподователь" style="swimlane;fontStyle=0;childLayout=stackLayout;horizontal=1;startSize=30;horizontalStack=0;resizeParent=1;resizeParentMax=0;resizeLast=0;collapsible=1;marginBottom=0;" vertex="1" parent="1">
          <mxGeometry x="440" y="350" width="140" height="120" as="geometry" />
        </mxCell>
        <mxCell id="qgj9xZN51WoRZrE9PYhr-23" value="Предмет" style="text;strokeColor=none;fillColor=none;align=left;verticalAlign=middle;spacingLeft=4;spacingRight=4;overflow=hidden;points=[[0,0.5],[1,0.5]];portConstraint=eastwest;rotatable=0;" vertex="1" parent="qgj9xZN51WoRZrE9PYhr-22">
          <mxGeometry y="30" width="140" height="30" as="geometry" />
        </mxCell>
        <mxCell id="qgj9xZN51WoRZrE9PYhr-24" value="Стаж" style="text;strokeColor=none;fillColor=none;align=left;verticalAlign=middle;spacingLeft=4;spacingRight=4;overflow=hidden;points=[[0,0.5],[1,0.5]];portConstraint=eastwest;rotatable=0;" vertex="1" parent="qgj9xZN51WoRZrE9PYhr-22">
          <mxGeometry y="60" width="140" height="30" as="geometry" />
        </mxCell>
        <mxCell id="qgj9xZN51WoRZrE9PYhr-25" value="Зарплата" style="text;strokeColor=none;fillColor=none;align=left;verticalAlign=middle;spacingLeft=4;spacingRight=4;overflow=hidden;points=[[0,0.5],[1,0.5]];portConstraint=eastwest;rotatable=0;" vertex="1" parent="qgj9xZN51WoRZrE9PYhr-22">
          <mxGeometry y="90" width="140" height="30" as="geometry" />
        </mxCell>
        <mxCell id="qgj9xZN51WoRZrE9PYhr-33" value="" style="endArrow=none;html=1;rounded=0;exitX=1;exitY=0.098;exitDx=0;exitDy=0;exitPerimeter=0;entryX=-0.02;entryY=0.089;entryDx=0;entryDy=0;entryPerimeter=0;startArrow=diamondThin;startFill=1;endSize=15;targetPerimeterSpacing=11;startSize=12;" edge="1" parent="1" source="qgj9xZN51WoRZrE9PYhr-9" target="qgj9xZN51WoRZrE9PYhr-14">
          <mxGeometry width="50" height="50" relative="1" as="geometry">
            <mxPoint x="280" y="220" as="sourcePoint" />
            <mxPoint x="330" y="170" as="targetPoint" />
          </mxGeometry>
        </mxCell>
        <mxCell id="qgj9xZN51WoRZrE9PYhr-34" value="Войска" style="swimlane;fontStyle=1;align=center;verticalAlign=top;childLayout=stackLayout;horizontal=1;startSize=26;horizontalStack=0;resizeParent=1;resizeParentMax=0;resizeLast=0;collapsible=1;marginBottom=0;" vertex="1" parent="1">
          <mxGeometry x="-330" y="500" width="160" height="216" as="geometry" />
        </mxCell>
        <mxCell id="qgj9xZN51WoRZrE9PYhr-35" value="-Очки здоровья" style="text;strokeColor=none;fillColor=none;align=left;verticalAlign=top;spacingLeft=4;spacingRight=4;overflow=hidden;rotatable=0;points=[[0,0.5],[1,0.5]];portConstraint=eastwest;" vertex="1" parent="qgj9xZN51WoRZrE9PYhr-34">
          <mxGeometry y="26" width="160" height="26" as="geometry" />
        </mxCell>
        <mxCell id="qgj9xZN51WoRZrE9PYhr-54" value="-Очки урона" style="text;strokeColor=none;fillColor=none;align=left;verticalAlign=top;spacingLeft=4;spacingRight=4;overflow=hidden;rotatable=0;points=[[0,0.5],[1,0.5]];portConstraint=eastwest;" vertex="1" parent="qgj9xZN51WoRZrE9PYhr-34">
          <mxGeometry y="52" width="160" height="26" as="geometry" />
        </mxCell>
        <mxCell id="qgj9xZN51WoRZrE9PYhr-55" value="-Дальность атаки" style="text;strokeColor=none;fillColor=none;align=left;verticalAlign=top;spacingLeft=4;spacingRight=4;overflow=hidden;rotatable=0;points=[[0,0.5],[1,0.5]];portConstraint=eastwest;" vertex="1" parent="qgj9xZN51WoRZrE9PYhr-34">
          <mxGeometry y="78" width="160" height="26" as="geometry" />
        </mxCell>
        <mxCell id="qgj9xZN51WoRZrE9PYhr-36" value="" style="line;strokeWidth=1;fillColor=none;align=left;verticalAlign=middle;spacingTop=-1;spacingLeft=3;spacingRight=3;rotatable=0;labelPosition=right;points=[];portConstraint=eastwest;strokeColor=inherit;" vertex="1" parent="qgj9xZN51WoRZrE9PYhr-34">
          <mxGeometry y="104" width="160" height="8" as="geometry" />
        </mxCell>
        <mxCell id="qgj9xZN51WoRZrE9PYhr-61" value="+получитьРануОтАтаки()" style="text;strokeColor=none;fillColor=none;align=left;verticalAlign=top;spacingLeft=4;spacingRight=4;overflow=hidden;rotatable=0;points=[[0,0.5],[1,0.5]];portConstraint=eastwest;" vertex="1" parent="qgj9xZN51WoRZrE9PYhr-34">
          <mxGeometry y="112" width="160" height="26" as="geometry" />
        </mxCell>
        <mxCell id="qgj9xZN51WoRZrE9PYhr-62" value="+получитьУрон()" style="text;strokeColor=none;fillColor=none;align=left;verticalAlign=top;spacingLeft=4;spacingRight=4;overflow=hidden;rotatable=0;points=[[0,0.5],[1,0.5]];portConstraint=eastwest;" vertex="1" parent="qgj9xZN51WoRZrE9PYhr-34">
          <mxGeometry y="138" width="160" height="26" as="geometry" />
        </mxCell>
        <mxCell id="qgj9xZN51WoRZrE9PYhr-63" value="+получитьЗдоровье()" style="text;strokeColor=none;fillColor=none;align=left;verticalAlign=top;spacingLeft=4;spacingRight=4;overflow=hidden;rotatable=0;points=[[0,0.5],[1,0.5]];portConstraint=eastwest;" vertex="1" parent="qgj9xZN51WoRZrE9PYhr-34">
          <mxGeometry y="164" width="160" height="26" as="geometry" />
        </mxCell>
        <mxCell id="qgj9xZN51WoRZrE9PYhr-37" value="+датьУрон()" style="text;strokeColor=none;fillColor=none;align=left;verticalAlign=top;spacingLeft=4;spacingRight=4;overflow=hidden;rotatable=0;points=[[0,0.5],[1,0.5]];portConstraint=eastwest;" vertex="1" parent="qgj9xZN51WoRZrE9PYhr-34">
          <mxGeometry y="190" width="160" height="26" as="geometry" />
        </mxCell>
        <mxCell id="qgj9xZN51WoRZrE9PYhr-38" value="Пехота" style="swimlane;fontStyle=1;align=center;verticalAlign=top;childLayout=stackLayout;horizontal=1;startSize=26;horizontalStack=0;resizeParent=1;resizeParentMax=0;resizeLast=0;collapsible=1;marginBottom=0;" vertex="1" parent="1">
          <mxGeometry x="-400" y="816" width="160" height="86" as="geometry" />
        </mxCell>
        <mxCell id="qgj9xZN51WoRZrE9PYhr-39" value="-Боевой дух" style="text;strokeColor=none;fillColor=none;align=left;verticalAlign=top;spacingLeft=4;spacingRight=4;overflow=hidden;rotatable=0;points=[[0,0.5],[1,0.5]];portConstraint=eastwest;" vertex="1" parent="qgj9xZN51WoRZrE9PYhr-38">
          <mxGeometry y="26" width="160" height="26" as="geometry" />
        </mxCell>
        <mxCell id="qgj9xZN51WoRZrE9PYhr-40" value="" style="line;strokeWidth=1;fillColor=none;align=left;verticalAlign=middle;spacingTop=-1;spacingLeft=3;spacingRight=3;rotatable=0;labelPosition=right;points=[];portConstraint=eastwest;strokeColor=inherit;" vertex="1" parent="qgj9xZN51WoRZrE9PYhr-38">
          <mxGeometry y="52" width="160" height="8" as="geometry" />
        </mxCell>
        <mxCell id="qgj9xZN51WoRZrE9PYhr-41" value="+получитьБоевойДух()" style="text;strokeColor=none;fillColor=none;align=left;verticalAlign=top;spacingLeft=4;spacingRight=4;overflow=hidden;rotatable=0;points=[[0,0.5],[1,0.5]];portConstraint=eastwest;" vertex="1" parent="qgj9xZN51WoRZrE9PYhr-38">
          <mxGeometry y="60" width="160" height="26" as="geometry" />
        </mxCell>
        <mxCell id="qgj9xZN51WoRZrE9PYhr-46" value="Кавалерия" style="swimlane;fontStyle=1;align=center;verticalAlign=top;childLayout=stackLayout;horizontal=1;startSize=26;horizontalStack=0;resizeParent=1;resizeParentMax=0;resizeLast=0;collapsible=1;marginBottom=0;" vertex="1" parent="1">
          <mxGeometry x="-190" y="816" width="210" height="86" as="geometry" />
        </mxCell>
        <mxCell id="qgj9xZN51WoRZrE9PYhr-47" value="-Лошадь" style="text;strokeColor=none;fillColor=none;align=left;verticalAlign=top;spacingLeft=4;spacingRight=4;overflow=hidden;rotatable=0;points=[[0,0.5],[1,0.5]];portConstraint=eastwest;" vertex="1" parent="qgj9xZN51WoRZrE9PYhr-46">
          <mxGeometry y="26" width="210" height="26" as="geometry" />
        </mxCell>
        <mxCell id="qgj9xZN51WoRZrE9PYhr-48" value="" style="line;strokeWidth=1;fillColor=none;align=left;verticalAlign=middle;spacingTop=-1;spacingLeft=3;spacingRight=3;rotatable=0;labelPosition=right;points=[];portConstraint=eastwest;strokeColor=inherit;" vertex="1" parent="qgj9xZN51WoRZrE9PYhr-46">
          <mxGeometry y="52" width="210" height="8" as="geometry" />
        </mxCell>
        <mxCell id="qgj9xZN51WoRZrE9PYhr-49" value="-получитьЗдоровьяЛошади()" style="text;strokeColor=none;fillColor=none;align=left;verticalAlign=top;spacingLeft=4;spacingRight=4;overflow=hidden;rotatable=0;points=[[0,0.5],[1,0.5]];portConstraint=eastwest;" vertex="1" parent="qgj9xZN51WoRZrE9PYhr-46">
          <mxGeometry y="60" width="210" height="26" as="geometry" />
        </mxCell>
        <mxCell id="qgj9xZN51WoRZrE9PYhr-50" value="Армия" style="swimlane;fontStyle=1;align=center;verticalAlign=top;childLayout=stackLayout;horizontal=1;startSize=26;horizontalStack=0;resizeParent=1;resizeParentMax=0;resizeLast=0;collapsible=1;marginBottom=0;" vertex="1" parent="1">
          <mxGeometry x="-90" y="560" width="160" height="138" as="geometry" />
        </mxCell>
        <mxCell id="qgj9xZN51WoRZrE9PYhr-51" value="-Войска" style="text;strokeColor=none;fillColor=none;align=left;verticalAlign=top;spacingLeft=4;spacingRight=4;overflow=hidden;rotatable=0;points=[[0,0.5],[1,0.5]];portConstraint=eastwest;" vertex="1" parent="qgj9xZN51WoRZrE9PYhr-50">
          <mxGeometry y="26" width="160" height="26" as="geometry" />
        </mxCell>
        <mxCell id="qgj9xZN51WoRZrE9PYhr-56" value="-Прочность" style="text;strokeColor=none;fillColor=none;align=left;verticalAlign=top;spacingLeft=4;spacingRight=4;overflow=hidden;rotatable=0;points=[[0,0.5],[1,0.5]];portConstraint=eastwest;" vertex="1" parent="qgj9xZN51WoRZrE9PYhr-50">
          <mxGeometry y="52" width="160" height="26" as="geometry" />
        </mxCell>
        <mxCell id="qgj9xZN51WoRZrE9PYhr-52" value="" style="line;strokeWidth=1;fillColor=none;align=left;verticalAlign=middle;spacingTop=-1;spacingLeft=3;spacingRight=3;rotatable=0;labelPosition=right;points=[];portConstraint=eastwest;strokeColor=inherit;" vertex="1" parent="qgj9xZN51WoRZrE9PYhr-50">
          <mxGeometry y="78" width="160" height="8" as="geometry" />
        </mxCell>
        <mxCell id="qgj9xZN51WoRZrE9PYhr-53" value="+получитьВойска()" style="text;strokeColor=none;fillColor=none;align=left;verticalAlign=top;spacingLeft=4;spacingRight=4;overflow=hidden;rotatable=0;points=[[0,0.5],[1,0.5]];portConstraint=eastwest;" vertex="1" parent="qgj9xZN51WoRZrE9PYhr-50">
          <mxGeometry y="86" width="160" height="26" as="geometry" />
        </mxCell>
        <mxCell id="qgj9xZN51WoRZrE9PYhr-57" value="+получитьПрочность()" style="text;strokeColor=none;fillColor=none;align=left;verticalAlign=top;spacingLeft=4;spacingRight=4;overflow=hidden;rotatable=0;points=[[0,0.5],[1,0.5]];portConstraint=eastwest;" vertex="1" parent="qgj9xZN51WoRZrE9PYhr-50">
          <mxGeometry y="112" width="160" height="26" as="geometry" />
        </mxCell>
        <mxCell id="qgj9xZN51WoRZrE9PYhr-58" value="" style="endArrow=diamondThin;html=1;rounded=0;exitX=1;exitY=0.081;exitDx=0;exitDy=0;exitPerimeter=0;entryX=-0.01;entryY=0.147;entryDx=0;entryDy=0;entryPerimeter=0;endFill=1;endSize=15;" edge="1" parent="1" source="qgj9xZN51WoRZrE9PYhr-34" target="qgj9xZN51WoRZrE9PYhr-50">
          <mxGeometry width="50" height="50" relative="1" as="geometry">
            <mxPoint x="-140" y="680" as="sourcePoint" />
            <mxPoint x="-90" y="630" as="targetPoint" />
          </mxGeometry>
        </mxCell>
        <mxCell id="qgj9xZN51WoRZrE9PYhr-59" value="" style="edgeStyle=elbowEdgeStyle;elbow=vertical;endArrow=block;html=1;rounded=0;startSize=12;endSize=15;targetPerimeterSpacing=11;exitX=0.446;exitY=-0.035;exitDx=0;exitDy=0;exitPerimeter=0;endFill=0;entryX=0.5;entryY=1;entryDx=0;entryDy=0;" edge="1" parent="1" source="qgj9xZN51WoRZrE9PYhr-18" target="qgj9xZN51WoRZrE9PYhr-29">
          <mxGeometry width="50" height="50" relative="1" as="geometry">
            <mxPoint x="340" y="320" as="sourcePoint" />
            <mxPoint x="390" y="270" as="targetPoint" />
          </mxGeometry>
        </mxCell>
        <mxCell id="qgj9xZN51WoRZrE9PYhr-60" value="" style="edgeStyle=elbowEdgeStyle;elbow=vertical;endArrow=block;html=1;rounded=0;startSize=12;endSize=15;targetPerimeterSpacing=11;exitX=0.539;exitY=-0.015;exitDx=0;exitDy=0;exitPerimeter=0;endFill=0;entryX=0.5;entryY=1;entryDx=0;entryDy=0;" edge="1" parent="1" source="qgj9xZN51WoRZrE9PYhr-22" target="qgj9xZN51WoRZrE9PYhr-29">
          <mxGeometry width="50" height="50" relative="1" as="geometry">
            <mxPoint x="301.3600000000001" y="355.79999999999995" as="sourcePoint" />
            <mxPoint x="430" y="260" as="targetPoint" />
          </mxGeometry>
        </mxCell>
        <mxCell id="qgj9xZN51WoRZrE9PYhr-64" value="" style="edgeStyle=elbowEdgeStyle;elbow=vertical;endArrow=block;html=1;rounded=0;startSize=12;endSize=15;targetPerimeterSpacing=11;entryX=0.504;entryY=1.038;entryDx=0;entryDy=0;entryPerimeter=0;endFill=0;" edge="1" parent="1" source="qgj9xZN51WoRZrE9PYhr-38" target="qgj9xZN51WoRZrE9PYhr-37">
          <mxGeometry width="50" height="50" relative="1" as="geometry">
            <mxPoint x="-250" y="880" as="sourcePoint" />
            <mxPoint x="-200" y="830" as="targetPoint" />
          </mxGeometry>
        </mxCell>
        <mxCell id="qgj9xZN51WoRZrE9PYhr-65" value="" style="edgeStyle=elbowEdgeStyle;elbow=vertical;endArrow=block;html=1;rounded=0;startSize=12;endSize=15;targetPerimeterSpacing=11;endFill=0;exitX=0.403;exitY=0.002;exitDx=0;exitDy=0;exitPerimeter=0;entryX=0.509;entryY=1.038;entryDx=0;entryDy=0;entryPerimeter=0;" edge="1" parent="1" source="qgj9xZN51WoRZrE9PYhr-46" target="qgj9xZN51WoRZrE9PYhr-37">
          <mxGeometry width="50" height="50" relative="1" as="geometry">
            <mxPoint x="-110" y="810" as="sourcePoint" />
            <mxPoint x="-210" y="730" as="targetPoint" />
          </mxGeometry>
        </mxCell>
      </root>
    </mxGraphModel>
  </diagram>
</mxfile>
